<svg width="64" height="65" viewBox="0 0 64 65" fill="none" xmlns="http://www.w3.org/2000/svg">
<path d="M31.237 1.78603C31.6364 1.31449 32.3636 1.31449 32.763 1.78603L37.2686 7.10508C37.556 7.44427 38.0327 7.55308 38.4387 7.37214L44.806 4.53475C45.3704 4.28321 46.0256 4.59875 46.1809 5.19689L47.9325 11.9441C48.0442 12.3744 48.4265 12.6793 48.8708 12.6924L55.8386 12.8987C56.4563 12.9169 56.9097 13.4855 56.7901 14.0918L55.4407 20.9308C55.3546 21.3669 55.5668 21.8075 55.9614 22.0121L62.1497 25.2211C62.6983 25.5056 62.8601 26.2146 62.4893 26.7089L58.3062 32.2852C58.0395 32.6408 58.0395 33.1297 58.3062 33.4853L62.4893 39.0616C62.8602 39.5559 62.6983 40.2649 62.1497 40.5494L55.9615 43.7584C55.5668 43.963 55.3547 44.4036 55.4407 44.8397L56.7901 51.6787C56.9098 52.285 56.4563 52.8536 55.8387 52.8719L48.8709 53.0781C48.4265 53.0912 48.0442 53.3961 47.9325 53.8264L46.181 60.5736C46.0257 61.1717 45.3705 61.4873 44.806 61.2357L38.4388 58.3983C38.0328 58.2174 37.556 58.3262 37.2687 58.6654L32.7631 63.9844C32.3637 64.456 31.6365 64.456 31.237 63.9844L26.7314 58.6654C26.4441 58.3262 25.9674 58.2174 25.5614 58.3983L19.1941 61.2357C18.6297 61.4873 17.9744 61.1717 17.8192 60.5736L16.0676 53.8264C15.9559 53.3961 15.5736 53.0912 15.1293 53.0781L8.16154 52.8719C7.54384 52.8536 7.09041 52.285 7.21004 51.6787L8.55944 44.8397C8.64549 44.4036 8.43333 43.963 8.0387 43.7584L1.85042 40.5494C1.30183 40.2649 1.14 39.5559 1.51084 39.0616L5.69393 33.4853C5.96068 33.1297 5.96068 32.6408 5.69393 32.2852L1.51082 26.7089C1.13999 26.2146 1.30181 25.5056 1.8504 25.2211L8.03868 22.0121C8.4333 21.8075 8.64546 21.3669 8.55941 20.9308L7.20999 14.0918C7.09036 13.4855 7.54379 12.9169 8.16149 12.8987L15.1292 12.6924C15.5736 12.6793 15.9559 12.3744 16.0676 11.9441L17.8191 5.19689C17.9744 4.59875 18.6296 4.28321 19.194 4.53475L25.5613 7.37214C25.9673 7.55308 26.4441 7.44427 26.7314 7.10508L31.237 1.78603Z" fill="#FFB53D"/>
<path d="M29.498 35.6493C30.6194 35.6493 31.5285 31.5658 31.5285 26.5285C31.5285 21.4911 30.6194 17.4076 29.498 17.4076C28.3766 17.4076 27.4675 21.4911 27.4675 26.5285C27.4675 31.5658 28.3766 35.6493 29.498 35.6493Z" fill="black"/>
<path d="M40.9426 35.6493C42.064 35.6493 42.9731 31.5658 42.9731 26.5285C42.9731 21.4911 42.064 17.4076 40.9426 17.4076C39.8212 17.4076 38.9121 21.4911 38.9121 26.5285C38.9121 31.5658 39.8212 35.6493 40.9426 35.6493Z" fill="black"/>
</svg>
