<svg width="64" height="64" viewBox="0 0 64 64" fill="none" xmlns="http://www.w3.org/2000/svg">
<path d="M31.2371 0.900771C31.6365 0.429235 32.3637 0.429236 32.7631 0.900771L37.2687 6.21982C37.556 6.55901 38.0328 6.66782 38.4388 6.48689L44.8061 3.64949C45.3705 3.39796 46.0257 3.71349 46.181 4.31164L47.9326 11.0589C48.0443 11.4891 48.4266 11.794 48.8709 11.8072L55.8387 12.0134C56.4564 12.0317 56.9098 12.6003 56.7902 13.2065L55.4408 20.0455C55.3547 20.4816 55.5669 20.9222 55.9615 21.1268L62.1498 24.3359C62.6984 24.6203 62.8602 25.3294 62.4894 25.8237L58.3063 31.3999C58.0395 31.7555 58.0395 32.2445 58.3063 32.6001L62.4894 38.1763C62.8602 38.6706 62.6984 39.3797 62.1498 39.6641L55.9615 42.8732C55.5669 43.0778 55.3547 43.5184 55.4408 43.9545L56.7902 50.7935C56.9098 51.3997 56.4564 51.9683 55.8387 51.9866L48.8709 52.1928C48.4266 52.206 48.0443 52.5109 47.9326 52.9411L46.181 59.6883C46.0257 60.2865 45.3705 60.602 44.8061 60.3505L38.4388 57.5131C38.0328 57.3321 37.556 57.441 37.2687 57.7801L32.7631 63.0992C32.3637 63.5707 31.6365 63.5707 31.2371 63.0992L26.7315 57.7801C26.4442 57.441 25.9674 57.3321 25.5614 57.5131L19.1941 60.3505C18.6297 60.602 17.9745 60.2865 17.8192 59.6883L16.0676 52.9411C15.9559 52.5109 15.5736 52.206 15.1293 52.1928L8.1615 51.9866C7.5438 51.9683 7.09038 51.3997 7.21 50.7935L8.55941 43.9545C8.64546 43.5184 8.4333 43.0778 8.03868 42.8732L1.8504 39.6641C1.30181 39.3797 1.13998 38.6706 1.51081 38.1763L5.69391 32.6001C5.96067 32.2445 5.96067 31.7555 5.69391 31.3999L1.51081 25.8237C1.13998 25.3294 1.30181 24.6203 1.8504 24.3359L8.03868 21.1268C8.4333 20.9222 8.64546 20.4816 8.55941 20.0455L7.21 13.2065C7.09037 12.6003 7.5438 12.0317 8.1615 12.0134L15.1293 11.8072C15.5736 11.794 15.9559 11.4891 16.0676 11.0589L17.8192 4.31164C17.9745 3.71349 18.6297 3.39796 19.1941 3.64949L25.5614 6.48689C25.9674 6.66782 26.4442 6.55901 26.7315 6.21982L31.2371 0.900771Z" fill="#D571FF"/>
<path d="M19.6035 34.5947C21.3058 39.6154 26.2124 43.2434 31.9999 43.2434C37.7874 43.2434 42.6941 39.6154 44.3963 34.5947" stroke="black" stroke-width="3"/>
</svg>
