<svg width="65" height="64" viewBox="0 0 65 64" fill="none" xmlns="http://www.w3.org/2000/svg">
<path d="M31.291 63.0991C31.6904 63.5707 32.4176 63.5707 32.8171 63.0991L37.3227 57.7801C37.61 57.4409 38.0867 57.3321 38.4927 57.513L44.86 60.3504C45.4244 60.602 46.0796 60.2864 46.2349 59.6883L47.9865 52.9411C48.0982 52.5108 48.4805 52.2059 48.9248 52.1928L55.8926 51.9866C56.5103 51.9683 56.9637 51.3997 56.8441 50.7934L55.4947 43.9544C55.4086 43.5183 55.6208 43.0778 56.0154 42.8731L62.2037 39.6641C62.7523 39.3796 62.9141 38.6706 62.5433 38.1763L58.3602 32.6001C58.0934 32.2445 58.0934 31.7555 58.3602 31.3999L62.5433 25.8237C62.9141 25.3293 62.7523 24.6203 62.2037 24.3358L56.0154 21.1268C55.6208 20.9222 55.4087 20.4816 55.4947 20.0455L56.8441 13.2065C56.9638 12.6003 56.5103 12.0317 55.8926 12.0134L48.9249 11.8071C48.4805 11.794 48.0982 11.4891 47.9865 11.0589L46.235 4.31169C46.0797 3.71355 45.4245 3.39801 44.86 3.64955L38.4928 6.48694C38.0868 6.66788 37.61 6.55907 37.3227 6.21988L32.8171 0.900832C32.4177 0.429296 31.6905 0.429296 31.291 0.900832L26.7855 6.21988C26.4981 6.55907 26.0214 6.66788 25.6154 6.48694L19.2481 3.64955C18.6837 3.39801 18.0285 3.71355 17.8732 4.31169L16.1216 11.0589C16.0099 11.4891 15.6276 11.794 15.1833 11.8071L8.21548 12.0134C7.59779 12.0317 7.14436 12.6003 7.26398 13.2065L8.61339 20.0455C8.69944 20.4816 8.48727 20.9222 8.09265 21.1268L1.90438 24.3358C1.35578 24.6203 1.19396 25.3293 1.56479 25.8237L5.74788 31.3999C6.01463 31.7555 6.01463 32.2445 5.74788 32.6001L1.56478 38.1763C1.19394 38.6706 1.35577 39.3796 1.90436 39.6641L8.09263 42.8731C8.48725 43.0778 8.69941 43.5183 8.61336 43.9544L7.26394 50.7934C7.14432 51.3997 7.59774 51.9683 8.21544 51.9866L15.1833 52.1928C15.6276 52.2059 16.0099 52.5108 16.1216 52.9411L17.8731 59.6883C18.0284 60.2864 18.6836 60.602 19.2481 60.3504L25.6153 57.513C26.0214 57.3321 26.4981 57.4409 26.7854 57.7801L31.291 63.0991Z" fill="#00C1FF"/>
<path d="M34.5562 34.764C33.4348 34.764 32.5257 30.6805 32.5257 25.6432C32.5257 20.6059 33.4348 16.5223 34.5562 16.5223C35.6776 16.5223 36.5867 20.6059 36.5867 25.6432C36.5867 30.6805 35.6776 34.764 34.5562 34.764Z" fill="black"/>
<path d="M23.1114 34.764C21.99 34.764 21.0809 30.6805 21.0809 25.6432C21.0809 20.6059 21.99 16.5223 23.1114 16.5223C24.2328 16.5223 25.1418 20.6059 25.1418 25.6432C25.1418 30.6805 24.2328 34.764 23.1114 34.764Z" fill="black"/>
</svg>
