<svg width="24" height="24" viewBox="0 0 24 24" fill="none" xmlns="http://www.w3.org/2000/svg">
<path d="M5.05538 3C4.48218 3 4.02666 3.48152 4.05845 4.05384L4.94751 20.0569C4.97691 20.586 5.41452 21 5.94444 21C6.51764 21 6.97316 20.5185 6.94136 19.9462L6.55456 12.9838C6.63825 12.9945 6.72348 13 6.80988 13H9.99991V14C9.99991 15.1046 10.8953 16 11.9999 16H17.9999C19.1045 16 19.9999 15.1046 19.9999 14V8C19.9999 6.89543 19.1045 6 17.9999 6H15.9999V5C15.9999 3.89543 15.1045 3 13.9999 3H5.10489C5.09659 3 5.08831 3.0001 5.08006 3.0003C5.07185 3.0001 5.06363 3 5.05538 3Z" fill="white"/>
</svg>
