<svg width="71" height="71" viewBox="0 0 71 71" fill="none" xmlns="http://www.w3.org/2000/svg">
<path d="M34.3213 0.900771C34.7207 0.429235 35.4479 0.429236 35.8473 0.900772L40.9075 6.87451C41.1948 7.2137 41.6715 7.32251 42.0776 7.14158L49.2285 3.95494C49.793 3.70341 50.4482 4.01895 50.6035 4.61709L52.5706 12.1948C52.6823 12.6251 53.0646 12.9299 53.509 12.9431L61.3344 13.1747C61.9521 13.193 62.4055 13.7616 62.2859 14.3679L60.7704 22.0486C60.6843 22.4847 60.8965 22.9253 61.2911 23.1299L68.2411 26.7339C68.7896 27.0184 68.9515 27.7274 68.5806 28.2217L63.8827 34.4843C63.6159 34.8399 63.6159 35.3289 63.8827 35.6845L68.5806 41.9471C68.9515 42.4414 68.7896 43.1504 68.2411 43.4349L61.2911 47.0389C60.8965 47.2435 60.6843 47.6841 60.7704 48.1202L62.2859 55.801C62.4055 56.4072 61.9521 56.9758 61.3344 56.9941L53.509 57.2257C53.0646 57.2389 52.6823 57.5438 52.5706 57.974L50.6035 65.5517C50.4482 66.1498 49.793 66.4654 49.2285 66.2138L42.0776 63.0272C41.6715 62.8463 41.1948 62.9551 40.9075 63.2943L35.8473 69.268C35.4479 69.7395 34.7207 69.7395 34.3213 69.268L29.2611 63.2943C28.9738 62.9551 28.4971 62.8463 28.091 63.0272L20.9401 66.2138C20.3756 66.4654 19.7204 66.1498 19.5651 65.5517L17.598 57.974C17.4863 57.5438 17.104 57.2389 16.6597 57.2257L8.83424 56.9941C8.21654 56.9758 7.76312 56.4072 7.88274 55.801L9.39824 48.1202C9.48429 47.6841 9.27213 47.2435 8.87751 47.0389L1.92755 43.4349C1.37896 43.1504 1.21713 42.4414 1.58797 41.9471L6.28594 35.6845C6.55269 35.3289 6.55269 34.8399 6.28594 34.4843L1.58797 28.2217C1.21713 27.7274 1.37896 27.0184 1.92755 26.7339L8.87751 23.1299C9.27213 22.9253 9.48429 22.4847 9.39824 22.0486L7.88274 14.3678C7.76312 13.7616 8.21654 13.193 8.83424 13.1747L16.6597 12.9431C17.104 12.9299 17.4863 12.6251 17.598 12.1948L19.5651 4.61709C19.7204 4.01895 20.3756 3.70341 20.9401 3.95494L28.091 7.14158C28.4971 7.32251 28.9738 7.2137 29.2611 6.87451L34.3213 0.900771Z" fill="#FFB53D"/>
<path d="M21.4932 37.9287C23.3595 43.4334 28.7391 47.411 35.0844 47.411C41.4298 47.411 46.8093 43.4334 48.6757 37.9287" stroke="black" stroke-width="3"/>
</svg>
