<svg width="24" height="24" viewBox="0 0 24 24" fill="none" xmlns="http://www.w3.org/2000/svg">
<path d="M3.49785 6.21816C2.04173 6.96002 2.04173 9.0404 3.49785 9.78226L10.2446 13.2195C11.3671 13.7914 12.6936 13.8011 13.8243 13.2455L20.8466 9.79525C22.3373 9.06281 22.3373 6.93761 20.8466 6.20517L13.8243 2.7549C12.6936 2.19933 11.3671 2.20895 10.2446 2.78087L3.49785 6.21816Z" fill="white"/>
<path d="M5 15.6887V12.6887L10.3268 15.3231C11.4444 15.8758 12.7556 15.8758 13.8732 15.3231L19 12.7876V15.6887C19 16.3368 19 16.6609 18.9557 16.956C18.7812 18.1189 18.104 19.1462 17.1038 19.7646C16.85 19.9215 16.552 20.0492 15.9564 20.3045C15.166 20.6432 14.7707 20.8126 14.3753 20.9356C12.8283 21.4166 11.1717 21.4166 9.62468 20.9356C9.22926 20.8126 8.83405 20.6433 8.04363 20.3045C7.44792 20.0492 7.15007 19.9215 6.89628 19.7646C5.89611 19.1462 5.21874 18.1189 5.04427 16.956C5 16.6609 5 16.3368 5 15.6887Z" fill="white"/>
</svg>
