<svg width="24" height="24" viewBox="0 0 24 24" fill="none" xmlns="http://www.w3.org/2000/svg">
<path fill-rule="evenodd" clip-rule="evenodd" d="M19.7783 11.2929C21.731 9.34024 21.731 6.17441 19.7783 4.22179C17.8257 2.26917 14.6599 2.26917 12.7073 4.22179C11.2575 5.67159 10.8841 7.7902 11.5872 9.58446L4.22201 16.9497C3.44097 17.7308 3.44097 18.9971 4.22201 19.7781C5.00306 20.5592 6.26939 20.5592 7.05044 19.7781C7.83149 20.5592 9.09782 20.5592 9.87887 19.7781L11.2931 18.3639C12.0741 17.5829 12.0741 16.3165 11.2931 15.5355L14.4157 12.4129C16.2099 13.116 18.3285 12.7427 19.7783 11.2929ZM17.657 9.17154C16.876 9.95259 15.6096 9.95259 14.8286 9.17154C14.0475 8.39049 14.0475 7.12416 14.8286 6.34311C15.6096 5.56206 16.876 5.56206 17.657 6.34311C18.4381 7.12416 18.4381 8.39049 17.657 9.17154Z" fill="white"/>
</svg>
