<svg width="157" height="47" viewBox="0 0 157 47" fill="none" xmlns="http://www.w3.org/2000/svg">
<path fill-rule="evenodd" clip-rule="evenodd" d="M139.798 0.103003C139.715 0.195926 139.706 0.481342 139.706 3.0315V5.85699H128.215C120.802 5.85699 116.618 5.87693 116.423 5.91325C115.618 6.06351 114.698 6.77699 114.318 7.54651C113.94 8.31135 113.968 7.15781 113.968 22.4424C113.968 37.727 113.94 36.5735 114.318 37.3383C114.556 37.8197 115.168 38.4484 115.623 38.6786C116.364 39.054 115.351 39.0278 129.172 39.0278C136.063 39.0278 142.503 39.011 143.483 38.9904C145.106 38.9563 145.273 38.9438 145.366 38.8496C145.465 38.7497 145.469 38.0944 145.469 19.4983C145.469 2.16855 145.46 0.237885 145.382 0.125194L145.295 0H142.593C140.046 0 139.886 0.00591216 139.798 0.103003ZM2.45699 5.91838C1.47155 6.1129 0.514873 7.01932 0.144354 8.10968L0.0199154 8.47574L0.00374495 21.119C-0.00515152 28.0727 0.00234676 33.8451 0.0204754 33.9464C0.101887 34.4019 0.64513 34.7258 1.05549 34.5635C1.24455 34.4888 2.40328 33.8127 6.48245 31.3971C8.75212 30.0531 12.2093 28.0084 14.6236 26.5821C17.8325 24.6864 21.1581 22.7167 24.0477 21.0005C25.4766 20.1519 26.6663 19.4492 26.6915 19.4388C26.7167 19.4285 26.7373 22.2723 26.7373 25.7583C26.7373 31.9934 26.7355 32.1016 26.6236 32.4027C26.4716 32.8115 26.1344 33.185 25.7421 33.3789L25.4224 33.5369L18.82 33.5651L12.2176 33.5932L11.9809 33.7205C11.8507 33.7905 10.8184 34.3957 9.68686 35.0654C8.55527 35.7351 6.81117 36.7652 5.81102 37.3545C4.81086 37.9438 3.96111 38.4648 3.92262 38.5124C3.82179 38.637 3.83662 38.8268 3.95568 38.9353C4.05125 39.0223 4.96641 39.028 16.643 39.0144L29.2272 38.9997L29.5629 38.8646C30.4821 38.4946 31.1042 37.8505 31.4719 36.8878L31.6332 36.4654L31.6476 23.7659C31.6613 11.7448 31.6568 11.0559 31.5637 10.8704C31.4084 10.5609 31.131 10.4035 30.7939 10.4337C30.5007 10.4599 30.6771 10.3605 26.3736 12.9246C25.7889 13.273 23.9509 14.3639 22.2891 15.3489C20.6273 16.334 18.4997 17.5959 17.5611 18.1532C16.6225 18.7105 15.6531 19.2845 15.4069 19.4288C15.0181 19.6565 9.68429 22.8212 6.65814 24.6196C6.09313 24.9554 5.60842 25.2301 5.58105 25.2301C5.50563 25.2301 5.51643 13.2795 5.59219 12.867C5.71064 12.2224 6.08037 11.7303 6.64348 11.4683C6.90165 11.3481 6.91245 11.3479 13.2807 11.3198C17.9023 11.2994 19.6979 11.2738 19.7992 11.2271C20.178 11.0523 27.8418 6.45913 27.9276 6.3554C28.0376 6.22249 28.0124 6.04166 27.868 5.92739C27.7974 5.87152 25.1944 5.85829 15.2423 5.86319C8.34713 5.86656 2.59374 5.8914 2.45699 5.91838ZM38.6584 5.91838C37.8531 6.07736 36.9581 6.79783 36.5635 7.60485C36.1743 8.40084 36.1972 7.47296 36.1972 22.4424C36.1972 37.4119 36.1743 36.484 36.5635 37.28C36.8251 37.8151 37.4139 38.429 37.9044 38.6781C38.6455 39.0545 37.57 39.0278 52.0279 39.0278C66.4858 39.0278 65.4104 39.0545 66.1515 38.6781C66.6419 38.429 67.2307 37.8151 67.4924 37.28C67.8814 36.4844 67.8584 37.4029 67.8606 22.5169C67.8619 13.5667 67.8433 8.93546 67.8048 8.65697C67.693 7.84826 67.3801 7.23321 66.8033 6.68846C66.403 6.3104 65.8304 6.00511 65.3511 5.91415C64.9738 5.84263 39.0216 5.84674 38.6584 5.91838ZM73.0143 6.00539L72.8983 6.15378V22.4424C72.8983 38.4867 72.8999 38.7331 73.007 38.8702L73.1157 39.0093L86.8133 38.984C99.2096 38.961 100.521 38.9501 100.612 38.8694C100.677 38.8118 100.706 38.7196 100.696 38.6095C100.68 38.4518 100.591 38.3867 99.5318 37.7562C98.2885 37.0164 93.4264 34.1391 92.7895 33.7662L92.3978 33.5369L85.7674 33.5088C79.6849 33.4829 79.1197 33.4727 78.9272 33.3849L78.7174 33.2892V19.6964V6.10349L78.6033 5.98027L78.4892 5.85699H75.8097H73.1302L73.0143 6.00539ZM103.293 5.94468L103.169 6.03231V22.4369C103.169 38.2578 103.172 38.8447 103.271 38.9346C103.363 39.0186 103.637 39.0278 106.041 39.0278C108.633 39.0278 108.711 39.0247 108.82 38.9152C108.931 38.8031 108.932 38.7275 108.932 22.4424C108.932 6.15733 108.931 6.08175 108.82 5.96963C108.711 5.86015 108.633 5.85699 106.063 5.85699C103.759 5.85699 103.401 5.86831 103.293 5.94468ZM61.9441 11.5062C62.296 11.6801 62.5831 11.9804 62.7817 12.3821L62.9107 12.6432V22.446V32.2487L62.7374 32.5831C62.5216 32.9994 62.1011 33.3597 61.6909 33.4797C61.4288 33.5564 60.3432 33.5647 52.2491 33.5517L43.1035 33.5369L42.811 33.4038C42.486 33.2559 42.1438 32.9152 41.9464 32.5429L41.8166 32.2979L41.802 22.5634C41.7922 16.048 41.8063 12.758 41.8447 12.6146C41.92 12.3329 42.2124 11.9046 42.4715 11.6962C42.5855 11.6044 42.8121 11.4829 42.9751 11.4261C43.2584 11.3272 43.673 11.3233 52.4476 11.3354L61.6238 11.3479L61.9441 11.5062ZM139.496 11.4473L139.706 11.5467L139.692 22.4573L139.678 33.368L139.37 33.4672C139.081 33.5605 138.521 33.5655 129.942 33.5517L120.822 33.5369L120.536 33.4069C120.202 33.2545 119.849 32.908 119.665 32.5514L119.535 32.2979V22.4424V12.5869L119.666 12.3335C119.821 12.0329 120.14 11.6836 120.374 11.5591C120.823 11.3202 120.568 11.326 130.138 11.3372C138.75 11.3473 139.298 11.3537 139.496 11.4473Z" fill="white"/>
<rect x="147.243" y="40.8022" width="9.75706" height="5.32203" fill="#9AF7FD"/>
</svg>
