<svg width="683" height="634" viewBox="0 0 683 634" fill="none" xmlns="http://www.w3.org/2000/svg">
<g clip-path="url(#clip0_103_748)">
<path d="M602.279 32.975C602.787 32.6229 603.49 32.8111 603.753 33.37L609.032 44.5533C609.222 44.9553 609.654 45.1837 610.093 45.1141L622.306 43.1755C622.917 43.0786 623.468 43.553 623.463 44.1709L623.367 56.537C623.363 56.9815 623.654 57.3749 624.079 57.5026L635.924 61.0553C636.516 61.2328 636.807 61.8994 636.535 62.454L631.082 73.5535C630.886 73.9525 630.977 74.433 631.305 74.7328L640.436 83.073C640.892 83.4898 640.865 84.2165 640.379 84.598L630.651 92.2326C630.301 92.507 630.174 92.9794 630.34 93.3919L634.948 104.868C635.178 105.441 634.838 106.084 634.235 106.217L622.157 108.875C621.723 108.97 621.404 109.341 621.374 109.784L620.546 122.123C620.505 122.74 619.92 123.171 619.319 123.029L607.284 120.183C606.851 120.081 606.403 120.277 606.184 120.663L600.085 131.421C599.78 131.958 599.065 132.094 598.585 131.705L588.977 123.919C588.632 123.639 588.143 123.621 587.778 123.874L577.615 130.92C577.107 131.272 576.405 131.084 576.141 130.525L570.863 119.342C570.673 118.94 570.24 118.711 569.801 118.781L557.588 120.719C556.978 120.816 556.426 120.342 556.431 119.724L556.528 107.358C556.531 106.913 556.241 106.52 555.815 106.392L543.97 102.84C543.378 102.662 543.087 101.995 543.36 101.441L548.812 90.3413C549.008 89.9424 548.917 89.4619 548.589 89.1621L539.458 80.8219C539.002 80.4051 539.029 79.6783 539.515 79.2968L549.244 71.6623C549.594 71.3878 549.72 70.9155 549.554 70.503L544.947 59.0271C544.717 58.4536 545.056 57.8106 545.66 57.6778L557.737 55.0203C558.171 54.9248 558.49 54.5541 558.52 54.1106L559.348 41.7719C559.389 41.1553 559.974 40.7235 560.576 40.8657L572.61 43.7116C573.043 43.8139 573.491 43.6183 573.71 43.2316L579.81 32.474C580.115 31.9365 580.829 31.8013 581.309 32.1903L590.917 39.9759C591.263 40.2558 591.751 40.2741 592.117 40.0208L602.279 32.975Z" fill="#FFB53D"/>
<path d="M569.99 79.5049C570.544 88.0017 576.648 95.6698 585.626 98.0756C594.605 100.481 603.725 96.8928 608.453 89.8112" stroke="black" stroke-width="3"/>
<path d="M37.1427 375.78C37.1041 375.163 37.6286 374.659 38.2434 374.723L50.5445 375.992C50.9866 376.037 51.4058 375.786 51.5734 375.374L56.2335 363.919C56.4664 363.347 57.1575 363.12 57.6838 363.444L68.2161 369.925C68.5947 370.158 69.0816 370.113 69.4112 369.815L78.5799 361.516C79.038 361.101 79.7589 361.197 80.0926 361.718L86.7701 372.126C87.0101 372.5 87.4683 372.671 87.8946 372.545L99.7559 369.047C100.349 368.872 100.956 369.271 101.031 369.885L102.531 382.16C102.585 382.601 102.924 382.954 103.363 383.025L115.567 385.02C116.177 385.12 116.552 385.743 116.353 386.328L112.378 398.038C112.236 398.459 112.388 398.924 112.752 399.179L122.882 406.271C123.389 406.626 123.456 407.35 123.023 407.791L114.361 416.617C114.05 416.934 113.985 417.419 114.202 417.807L120.253 428.592C120.555 429.131 120.301 429.812 119.72 430.022L108.086 434.216C107.668 434.367 107.399 434.775 107.427 435.219L108.199 447.561C108.237 448.178 107.713 448.682 107.098 448.618L94.7968 447.349C94.3546 447.304 93.9354 447.556 93.7679 447.967L89.1078 459.422C88.8749 459.994 88.1837 460.221 87.6574 459.897L77.1251 453.416C76.7465 453.183 76.2596 453.228 75.93 453.527L66.7614 461.825C66.3032 462.24 65.5823 462.144 65.2486 461.624L58.5712 451.215C58.3312 450.841 57.873 450.67 57.4466 450.796L45.5854 454.294C44.9927 454.469 44.3848 454.07 44.3099 453.456L42.8098 441.181C42.7559 440.74 42.4172 440.387 41.9785 440.316L29.774 438.321C29.1641 438.222 28.7897 437.598 28.9883 437.013L32.9628 425.303C33.1056 424.882 32.9535 424.417 32.5893 424.162L22.4588 417.07C21.9525 416.715 21.8857 415.991 22.3185 415.55L30.9803 406.724C31.2917 406.407 31.3562 405.922 31.1388 405.534L25.0886 394.749C24.7863 394.21 25.0403 393.529 25.6216 393.319L37.2552 389.125C37.6733 388.974 37.9418 388.566 37.9141 388.122L37.1427 375.78Z" fill="#00C1FF"/>
<path d="M60.2549 427.485C67.8126 431.408 77.5327 430.151 84.237 423.712C90.9413 417.274 92.5889 407.612 88.975 399.902" stroke="black" stroke-width="3"/>
<path d="M418.52 23.8871C419.091 23.6496 419.738 23.9811 419.879 24.5829L422.69 36.6255C422.791 37.0583 423.166 37.3725 423.61 37.3966L435.958 38.0667C436.575 38.1002 437.014 38.6798 436.88 39.2829L434.188 51.3528C434.091 51.7867 434.292 52.2323 434.682 52.4466L445.517 58.408C446.058 58.7059 446.202 59.4187 445.819 59.9038L438.157 69.6104C437.882 69.9593 437.87 70.4482 438.128 70.8102L445.303 80.8822C445.661 81.3855 445.482 82.0904 444.927 82.3612L433.812 87.7822C433.412 87.9771 433.189 88.4122 433.264 88.8503L435.359 101.038C435.464 101.647 434.996 102.204 434.378 102.207L422.012 102.269C421.568 102.271 421.178 102.566 421.056 102.994L417.655 114.883C417.485 115.477 416.822 115.777 416.264 115.511L405.095 110.201C404.694 110.01 404.215 110.107 403.919 110.439L395.696 119.676C395.285 120.137 394.558 120.12 394.171 119.638L386.412 110.008C386.134 109.662 385.66 109.542 385.249 109.712L373.833 114.466C373.263 114.704 372.615 114.372 372.475 113.771L369.663 101.728C369.562 101.295 369.188 100.981 368.744 100.957L356.395 100.287C355.778 100.253 355.339 99.6738 355.474 99.0705L358.165 87.0007C358.262 86.5668 358.061 86.1212 357.672 85.9069L346.837 79.9454C346.295 79.6475 346.151 78.9348 346.534 78.4497L354.196 68.7431C354.472 68.3942 354.484 67.9053 354.226 67.5434L347.051 57.4712C346.692 56.9679 346.871 56.2631 347.427 55.9922L358.542 50.5714C358.941 50.3765 359.164 49.9413 359.089 49.5032L356.995 37.3155C356.89 36.7064 357.357 36.1492 357.975 36.1461L370.341 36.0847C370.786 36.0825 371.176 35.7871 371.298 35.3597L374.699 23.4702C374.869 22.8761 375.532 22.5768 376.09 22.8421L387.258 28.1523C387.659 28.3432 388.139 28.2461 388.434 27.9141L396.657 18.6777C397.068 18.2161 397.795 18.234 398.183 18.7153L405.941 28.3453C406.22 28.6915 406.694 28.812 407.104 28.6411L418.52 23.8871Z" fill="#D571FF"/>
<path d="M377.177 62.5967C375.934 71.0203 380.291 79.7994 388.564 84.0376C396.837 88.2757 406.508 86.6828 412.618 80.7523" stroke="black" stroke-width="3"/>
<path d="M267.022 225.846C267.534 226.45 268.466 226.45 268.978 225.846L274.75 219.031C275.119 218.596 275.729 218.457 276.25 218.689L284.408 222.324C285.131 222.646 285.97 222.242 286.169 221.476L288.413 212.831C288.557 212.28 289.046 211.889 289.616 211.872L298.543 211.608C299.335 211.584 299.916 210.856 299.762 210.079L298.033 201.317C297.923 200.758 298.195 200.193 298.701 199.931L306.629 195.82C307.332 195.455 307.539 194.547 307.064 193.913L301.705 186.769C301.363 186.313 301.363 185.687 301.705 185.231L307.064 178.087C307.539 177.453 307.332 176.545 306.629 176.18L298.701 172.069C298.195 171.807 297.923 171.242 298.033 170.683L299.762 161.921C299.916 161.144 299.335 160.416 298.543 160.392L289.616 160.128C289.046 160.111 288.557 159.72 288.413 159.169L286.169 150.524C285.97 149.758 285.131 149.354 284.408 149.676L276.25 153.311C275.729 153.543 275.119 153.404 274.75 152.969L268.978 146.154C268.466 145.55 267.534 145.55 267.022 146.154L261.25 152.969C260.881 153.404 260.271 153.543 259.75 153.311L251.592 149.676C250.869 149.354 250.03 149.758 249.831 150.524L247.587 159.169C247.443 159.72 246.954 160.111 246.384 160.128L237.457 160.392C236.665 160.416 236.085 161.144 236.238 161.921L237.967 170.683C238.077 171.242 237.805 171.807 237.3 172.069L229.371 176.18C228.668 176.545 228.461 177.453 228.936 178.087L234.295 185.231C234.637 185.687 234.637 186.313 234.295 186.769L228.936 193.913C228.461 194.547 228.668 195.455 229.371 195.82L237.299 199.931C237.805 200.193 238.077 200.758 237.967 201.317L236.238 210.079C236.084 210.856 236.665 211.584 237.457 211.608L246.384 211.872C246.954 211.889 247.443 212.28 247.587 212.831L249.831 221.476C250.03 222.242 250.869 222.646 251.592 222.324L259.75 218.689C260.271 218.457 260.881 218.596 261.25 219.031L267.022 225.846Z" fill="#F4F4F4"/>
<path d="M271.206 189.542C269.769 189.542 268.605 184.31 268.605 177.856C268.605 171.402 269.769 166.17 271.206 166.17C272.643 166.17 273.808 171.402 273.808 177.856C273.808 184.31 272.643 189.542 271.206 189.542Z" fill="black"/>
<path d="M256.542 189.542C255.105 189.542 253.94 184.31 253.94 177.856C253.94 171.402 255.105 166.17 256.542 166.17C257.979 166.17 259.144 171.402 259.144 177.856C259.144 184.31 257.979 189.542 256.542 189.542Z" fill="black"/>
<path d="M234.353 359.461L249.634 336.016C252.795 331.166 252.104 324.529 247.596 320.902C242.414 316.731 234.844 318.017 231.284 323.482L215.726 347.348C213.408 350.905 214.413 355.664 217.971 357.978L223.714 361.713C227.271 364.026 232.034 363.018 234.353 359.461Z" fill="#FFC359"/>
<path d="M368.127 356.054L538.951 279.998L526.199 251.358C506.644 207.436 455.143 187.7 411.169 207.279L399.589 212.434C355.615 232.013 335.82 283.491 355.376 327.414L368.127 356.054Z" fill="#FFB93D"/>
<path d="M379.034 288.281C371.905 272.269 379.136 253.505 395.147 246.376L439.388 226.679C447.384 223.119 456.092 223.127 463.665 226.046C471.259 228.955 477.728 234.746 481.293 242.752C481.53 243.284 481.733 243.804 481.937 244.321C482.186 244.822 482.436 245.319 482.673 245.852C489.802 261.865 482.569 280.629 466.557 287.758L422.319 307.455C414.322 311.015 405.613 311.006 398.042 308.087C390.446 305.176 383.978 299.386 380.413 291.38C380.176 290.848 379.974 290.33 379.769 289.81C379.52 289.312 379.27 288.813 379.034 288.281Z" fill="#1F1F1F"/>
<path d="M585.075 387.64C586.859 387.404 588.549 387.018 590.208 386.569C593.707 385.607 596.942 384.186 599.989 382.407C604.566 384.779 609.665 386.245 615.152 386.75L615.137 386.717C620.232 387.184 625.237 386.669 629.884 385.351L630.431 385.204L630.766 385.113C631.141 385.428 631.506 385.728 631.896 386.015C635.511 388.913 639.703 391.206 644.323 392.77C648.908 394.311 653.523 395.011 658.056 394.938C658.523 394.942 658.982 394.929 659.437 394.901C659.523 394.9 659.641 394.906 659.72 394.89C662.706 399.05 666.499 402.734 671.08 405.644C675.075 408.219 679.362 410.007 683.748 411.04C684.202 411.146 684.656 411.251 685.128 411.331C685.323 411.379 685.551 411.431 685.738 411.463C687.673 416.263 690.526 420.713 694.315 424.651C697.892 428.374 702.024 431.253 706.432 433.316C706.7 433.466 706.957 433.582 707.212 433.7C707.249 433.915 707.278 434.172 707.338 434.376C707.555 435.839 707.881 437.293 708.258 438.724C709.176 442.032 710.574 445.3 712.397 448.416C713.974 451.105 715.806 453.524 717.85 455.696L789.174 423.94C788.952 421.419 788.51 418.92 787.812 416.438C786.894 413.073 785.503 409.821 783.697 406.676C781.458 402.82 778.661 399.481 775.462 396.668C772.491 394.043 769.14 391.876 765.583 390.224C765.366 390.128 765.134 390.001 764.886 389.898C764.851 389.626 764.799 389.379 764.74 389.116C764.501 387.662 764.204 386.215 763.805 384.794C762.017 378.426 758.682 372.439 753.769 367.346C747.951 361.269 740.77 357.418 733.144 355.767C732.644 355.623 732.141 355.539 731.631 355.439L731.559 355.279C730.02 351.496 727.933 347.917 725.301 344.679C722.603 341.431 719.367 338.538 715.609 336.109C711.836 333.706 707.808 331.975 703.702 330.914C699.633 329.877 695.465 329.46 691.344 329.677C691.295 329.698 691.233 329.687 691.175 329.693C690.931 329.339 690.656 328.98 690.405 328.611C688.147 325.631 685.439 322.946 682.367 320.683C678.977 318.098 675.073 316.058 670.824 314.611C662.895 311.954 654.755 311.832 647.225 313.791C646.995 313.864 646.754 313.912 646.527 313.983L645.564 314.24L645.553 314.215C642.38 311.533 638.831 309.308 634.923 307.649C631.016 305.991 626.784 304.913 622.331 304.513C617.227 304.083 612.27 304.579 607.671 305.872C604.178 306.845 600.869 308.231 597.839 310.044C594.129 308.181 590.137 306.852 585.958 306.155C581.804 305.449 577.468 305.377 573.052 306.036C571.27 306.278 569.576 306.654 567.916 307.103C548.166 312.643 535.145 332.12 538.173 352.903C538.429 354.649 538.805 356.341 539.252 358C544.756 377.742 564.262 390.726 585.075 387.64Z" fill="#FFCF7A"/>
<path d="M658.055 394.938C658.524 394.941 658.983 394.93 659.436 394.901C663.013 372.046 680.256 345.129 691.345 329.675C691.295 329.698 691.234 329.687 691.178 329.691C690.933 329.338 690.658 328.98 690.406 328.611C679.146 344.14 661.547 371.427 658.055 394.938Z" fill="#FFB93D"/>
<path d="M630.431 385.204L630.768 385.113C631.14 385.428 631.506 385.727 631.898 386.015C629.47 362.733 640.057 331.649 647.226 313.79C646.997 313.864 646.756 313.911 646.528 313.984L645.566 314.238C638.397 332.039 628.318 361.974 630.431 385.204Z" fill="#FFB93D"/>
<path d="M217.361 333.605L210.931 306.39C209.601 300.762 204.031 296.752 197.903 297.604C190.856 298.583 186.181 305.035 187.68 311.377L194.224 339.081C195.2 343.21 199.573 345.709 203.992 344.664L211.125 342.974C215.544 341.928 218.336 337.733 217.361 333.605Z" fill="#FFC359"/>
<path d="M191.746 338.797L177.164 314.937C174.147 310.002 167.606 307.923 162.044 310.636C155.65 313.757 153.214 321.339 156.611 326.899L171.456 351.189C173.668 354.809 178.604 355.824 182.479 353.457L188.734 349.636C192.611 347.27 193.959 342.417 191.746 338.797Z" fill="#FFC359"/>
<path d="M171.564 354.962L149.519 337.746C144.96 334.186 138.103 334.536 133.847 339.029C128.954 344.193 129.338 352.146 134.475 356.157L156.917 373.683C160.262 376.293 165.241 375.512 168.038 371.935L172.555 366.163C175.351 362.587 174.908 357.574 171.564 354.962Z" fill="#FFC359"/>
<path d="M190.116 336.909L173.408 347.286C160.682 355.195 156.769 371.907 164.671 384.618L173.971 399.577L236.767 360.566L227.469 345.607C219.565 332.896 202.842 329.001 190.116 336.909Z" fill="#FFCF7A"/>
<path d="M192.047 347.162L180.308 354.452C171.367 360.009 168.62 371.75 174.171 380.679L181.499 392.974L225.615 365.566L218.288 353.273C212.736 344.343 200.989 341.608 192.047 347.162Z" fill="#FF7663"/>
<path d="M234.438 358.745L174.524 395.968C171.128 398.076 170.086 402.534 172.193 405.923C174.3 409.312 178.759 410.351 182.153 408.242L242.069 371.019C245.462 368.911 246.506 364.454 244.399 361.066C242.292 357.676 237.831 356.637 234.438 358.745Z" fill="#FFB93D"/>
<path d="M385.434 417.462C383.7 417.945 382.075 418.55 380.49 419.221C377.164 420.663 374.149 422.505 371.381 424.694C366.521 422.963 361.261 422.202 355.762 422.463L355.776 422.486C350.669 422.723 345.779 423.917 341.355 425.854L340.839 426.08L340.517 426.218C340.098 425.947 339.694 425.699 339.267 425.464C335.289 423.092 330.827 421.399 326.03 420.474C321.282 419.58 316.612 419.513 312.131 420.205C311.672 420.273 311.213 420.338 310.767 420.426C310.687 420.447 310.568 420.458 310.486 420.477C306.959 416.765 302.697 413.633 297.765 411.385C293.454 409.38 288.967 408.201 284.477 407.771C284.006 407.72 283.551 407.692 283.071 407.676C282.867 407.648 282.638 407.632 282.448 407.626C279.873 403.135 276.437 399.115 272.139 395.724C268.086 392.527 263.606 390.249 258.951 388.8C258.667 388.696 258.396 388.611 258.126 388.53C258.059 388.323 258.001 388.077 257.912 387.883C257.493 386.455 256.971 385.063 256.403 383.696C255.039 380.545 253.207 377.498 250.977 374.666C249.045 372.212 246.903 370.074 244.583 368.205L178.267 409.404C178.827 411.866 179.611 414.285 180.641 416.644C182.01 419.854 183.829 422.88 186.049 425.748C188.796 429.258 192.024 432.189 195.582 434.54C198.886 436.735 202.502 438.424 206.245 439.567C206.479 439.639 206.726 439.735 206.983 439.796C207.054 440.063 207.135 440.295 207.23 440.547C207.671 441.96 208.156 443.346 208.746 444.697C211.395 450.768 215.514 456.237 221.084 460.618C227.673 465.833 235.32 468.672 243.104 469.273C243.611 469.331 244.127 469.356 244.642 469.379L244.74 469.538C246.785 473.078 249.339 476.332 252.394 479.183C255.508 482.027 259.107 484.446 263.159 486.335C267.232 488.207 271.454 489.364 275.675 489.865C279.847 490.337 284.031 490.172 288.087 489.403C288.133 489.375 288.192 489.369 288.25 489.363C288.542 489.681 288.857 489.987 289.163 490.328C291.804 492.965 294.855 495.256 298.208 497.079C301.918 499.169 306.063 500.655 310.478 501.521C318.694 503.063 326.771 502.066 333.972 499.111C334.183 498.997 334.414 498.914 334.634 498.816L335.55 498.428L335.568 498.459C339.074 500.673 342.897 502.399 346.994 503.502C351.097 504.622 355.431 505.1 359.903 504.899C365.019 504.624 369.858 503.451 374.238 501.54C377.565 500.098 380.656 498.279 383.411 496.071C387.338 497.404 391.478 498.178 395.712 498.297C399.92 498.426 404.231 497.913 408.511 496.642C410.243 496.161 411.875 495.568 413.455 494.886C432.265 486.703 442.502 465.64 436.652 445.46C436.163 443.77 435.562 442.151 434.891 440.563C426.736 421.762 405.635 411.565 385.434 417.462Z" fill="#FFCF7A"/>
<path d="M258.126 388.53C258.06 388.322 258.001 388.077 257.912 387.884C244.51 409.798 218.251 430.702 206.245 439.567C206.478 439.64 206.726 439.735 206.982 439.797C207.054 440.064 207.136 440.295 207.231 440.548C219.409 431.608 245.476 410.947 258.95 388.801C258.666 388.696 258.395 388.613 258.126 388.53Z" fill="#FFB93D"/>
<path d="M284.476 407.772C284.006 407.72 283.549 407.693 283.071 407.676C276.127 430.671 255.247 455.95 243.105 469.273C243.61 469.333 244.126 469.357 244.641 469.38L244.739 469.539C257.143 455.929 277.712 430.905 284.476 407.772Z" fill="#FFB93D"/>
<path d="M312.131 420.205C311.672 420.273 311.213 420.338 310.767 420.427C310.351 443.552 296.961 472.581 288.088 489.403C288.132 489.375 288.191 489.368 288.25 489.363C288.544 489.682 288.858 489.986 289.163 490.328C298.195 473.408 311.891 443.97 312.131 420.205Z" fill="#FFB93D"/>
<path d="M340.839 426.08L340.518 426.217C340.099 425.947 339.693 425.699 339.267 425.465C344.86 448.199 338.627 480.435 333.971 499.111C334.183 498.997 334.413 498.914 334.633 498.816L335.55 498.427C340.217 479.822 346.108 448.796 340.839 426.08Z" fill="#FFB93D"/>
<path d="M576.952 650.567L555.985 603.472C554.746 600.691 553.121 598.198 551.182 596.039C543.138 587.062 529.895 583.849 518.269 589.025L500.251 597.047C488.626 602.223 482.15 614.216 483.441 626.199C483.749 629.085 484.512 631.962 485.75 634.743L506.718 681.837L576.952 650.567Z" fill="#FFCF7A"/>
<path d="M424.556 497.299L445.517 544.378C446.762 547.174 448.389 549.667 450.328 551.827C458.371 560.804 471.615 564.017 483.241 558.84L501.258 550.818C512.884 545.642 519.358 533.65 518.069 521.667C517.761 518.78 516.996 515.904 515.751 513.108L494.79 466.029L424.556 497.299Z" fill="#FFCF7A"/>
<path d="M512.708 528.407C523.398 523.648 527.187 510.386 520.627 500.712L503.827 475.931C502.589 473.15 500.916 470.679 498.886 468.559C490.472 459.748 476.144 457.017 463.239 462.763L443.241 471.666C430.337 477.412 422.779 489.886 423.697 502.036C423.915 504.962 424.632 507.859 425.87 510.64L433.043 539.707C435.845 551.054 448.235 557.112 458.923 552.354L512.708 528.407Z" fill="#FFB93D"/>
<path d="M466.15 569.031L466.222 569.191C467.209 571.41 469.322 572.761 471.591 572.887C472.094 572.913 472.634 572.885 473.164 572.765C473.403 572.715 473.643 572.666 473.893 572.575C474.101 572.52 474.296 572.434 474.489 572.348L517.153 553.353C517.347 553.266 517.542 553.18 517.721 553.062C517.956 552.936 518.154 552.791 518.351 552.646C518.793 552.334 519.175 551.951 519.495 551.559C520.917 549.79 521.327 547.315 520.339 545.097L520.268 544.936C518.865 541.786 515.156 540.375 512 541.78L469.336 560.775C466.182 562.18 464.748 565.88 466.15 569.031Z" fill="#FFB93D"/>
<path d="M471.167 580.299L471.246 580.475C472.247 582.725 474.455 584.093 476.78 584.155C477.246 584.159 477.701 584.131 478.18 584.033C478.611 583.957 479.069 583.81 479.506 583.615L522.17 564.62C522.607 564.425 523.022 564.183 523.368 563.914C523.761 563.623 524.085 563.305 524.395 562.955C525.904 561.186 526.365 558.63 525.363 556.381L525.284 556.204C524.154 553.665 521.527 552.272 518.91 552.532C518.72 552.56 518.527 552.587 518.351 552.647C517.92 552.724 517.462 552.869 517.024 553.064L474.36 572.059C473.924 572.253 473.508 572.497 473.164 572.766C473.001 572.857 472.852 572.981 472.703 573.105C470.759 574.876 470.036 577.759 471.167 580.299Z" fill="#FFB93D"/>
<path d="M476.183 591.565L476.248 591.71C477.3 594.073 479.626 595.445 482.027 595.415C482.431 595.409 482.829 595.387 483.22 595.289C483.65 595.213 484.086 595.076 484.522 594.882L527.186 575.887C527.624 575.692 528.013 575.461 528.36 575.191C528.696 574.965 528.978 574.685 529.253 574.389C530.881 572.625 531.417 569.978 530.366 567.616L530.301 567.471C529.206 565.011 526.698 563.624 524.157 563.794C523.91 563.825 523.631 563.854 523.368 563.914C522.936 563.99 522.478 564.136 522.041 564.33L479.377 583.326C478.941 583.52 478.525 583.764 478.18 584.032C477.958 584.188 477.751 584.377 477.562 584.539C475.735 586.315 475.089 589.106 476.183 591.565Z" fill="#FFB93D"/>
<path d="M481.207 602.849L481.272 602.995C482.674 606.144 486.391 607.57 489.546 606.166L532.21 587.171C535.365 585.766 536.791 582.049 535.389 578.9L535.324 578.755C534.251 576.343 531.871 574.977 529.404 575.055C529.055 575.056 528.697 575.099 528.359 575.191C527.927 575.268 527.495 575.404 527.057 575.598L484.393 594.594C483.957 594.788 483.564 595.02 483.219 595.289C482.927 595.478 482.653 595.715 482.42 595.973C480.712 597.755 480.133 600.438 481.207 602.849Z" fill="#FFB93D"/>
<path d="M685.826 602.093L664.858 554.999C663.62 552.218 661.993 549.725 660.054 547.565C652.012 538.589 638.767 535.376 627.143 540.551L609.124 548.574C597.497 553.75 591.024 565.742 592.312 577.726C592.62 580.612 593.386 583.488 594.624 586.269L615.592 633.363L685.826 602.093Z" fill="#FFCF7A"/>
<path d="M533.43 448.825L554.391 495.905C555.636 498.701 557.261 501.194 559.2 503.354C567.245 512.33 580.487 515.544 592.113 510.367L610.131 502.345C621.757 497.169 628.232 485.176 626.942 473.193C626.634 470.307 625.87 467.431 624.625 464.635L603.664 417.555L533.43 448.825Z" fill="#FFCF7A"/>
<path d="M621.584 479.932C632.273 475.173 636.061 461.912 629.5 452.238L612.701 427.457C611.463 424.676 609.79 422.205 607.76 420.085C599.346 411.274 585.019 408.543 572.113 414.289L552.115 423.193C539.211 428.938 531.653 441.413 532.572 453.561C532.789 456.488 533.507 459.385 534.745 462.166L541.919 491.232C544.718 502.581 557.109 508.638 567.798 503.879L621.584 479.932Z" fill="#FFB93D"/>
<path d="M575.042 520.55L575.114 520.71C576.102 522.928 578.191 524.29 580.457 524.417C580.963 524.442 581.503 524.414 582.03 524.295C582.271 524.245 582.511 524.195 582.762 524.104C582.969 524.05 583.163 523.963 583.357 523.877L626.046 504.871C626.239 504.785 626.434 504.698 626.615 504.58C626.848 504.455 627.046 504.31 627.243 504.165C627.685 503.852 628.067 503.47 628.387 503.078C629.811 501.308 630.196 498.844 629.208 496.626L629.137 496.465C627.734 493.315 624.048 491.894 620.894 493.298L578.204 512.305C575.05 513.709 573.64 517.399 575.042 520.55Z" fill="#FFB93D"/>
<path d="M580.058 531.816L580.137 531.993C581.139 534.243 583.324 535.621 585.648 535.683C586.115 535.687 586.568 535.659 587.046 535.562C587.479 535.485 587.936 535.338 588.373 535.144L631.062 516.137C631.499 515.943 631.915 515.7 632.259 515.432C632.653 515.141 632.978 514.822 633.287 514.473C634.795 512.704 635.233 510.158 634.231 507.909L634.153 507.732C633.022 505.193 630.419 503.789 627.802 504.049C627.611 504.077 627.418 504.105 627.243 504.165C626.813 504.241 626.353 504.387 625.917 504.581L583.227 523.588C582.791 523.782 582.377 524.025 582.03 524.295C581.869 524.385 581.72 524.51 581.571 524.633C579.627 526.403 578.928 529.277 580.058 531.816Z" fill="#FFB93D"/>
<path d="M585.075 543.084L585.14 543.229C586.192 545.592 588.494 546.974 590.894 546.944C591.299 546.938 591.696 546.916 592.088 546.818C592.52 546.741 592.953 546.606 593.389 546.411L636.079 527.405C636.515 527.21 636.905 526.98 637.252 526.71C637.587 526.484 637.87 526.204 638.145 525.907C639.773 524.144 640.286 521.507 639.234 519.145L639.169 518.999C638.074 516.54 635.59 515.143 633.048 515.312C632.802 515.344 632.524 515.372 632.26 515.432C631.829 515.508 631.37 515.654 630.934 515.848L588.244 534.855C587.808 535.049 587.393 535.292 587.046 535.562C586.826 535.718 586.619 535.906 586.431 536.068C584.604 537.843 583.98 540.625 585.075 543.084Z" fill="#FFB93D"/>
<path d="M590.099 554.368L590.164 554.513C591.566 557.663 595.259 559.1 598.413 557.696L641.103 538.689C644.257 537.285 645.66 533.578 644.258 530.429L644.193 530.284C643.12 527.872 640.761 526.496 638.296 526.573C637.947 526.574 637.59 526.618 637.251 526.71C636.819 526.787 636.387 526.922 635.95 527.116L593.261 546.123C592.824 546.317 592.434 546.548 592.088 546.818C591.793 547.007 591.522 547.244 591.288 547.503C589.58 549.284 589.025 551.956 590.099 554.368Z" fill="#FFB93D"/>
<path d="M405.336 499.79L619.41 404.478C629.037 400.192 633.371 388.922 629.091 379.31L600.901 315.993C596.62 306.378 585.344 302.057 575.717 306.343L361.643 401.655C352.018 405.941 347.684 417.211 351.965 426.827L380.155 490.143C384.435 499.755 395.71 504.076 405.336 499.79Z" fill="#FFB93D"/>
<path d="M364.393 413.708L398.221 489.689C402.544 499.397 410.209 506.595 419.22 510.558C423.643 512.48 428.698 512.231 433.1 510.271L608.6 432.134C613.002 430.174 616.569 426.583 618.102 422.01C621.217 412.648 620.965 402.15 616.642 392.441L582.814 316.461C573.587 295.738 549.316 286.464 528.602 295.686L385.231 359.519C364.515 368.743 355.166 392.985 364.393 413.708Z" fill="#FFCF7A"/>
<path d="M374.343 367.083L542.989 291.997C548.947 289.344 551.629 282.37 548.979 276.418C546.329 270.467 539.352 267.795 533.394 270.447L364.749 345.533C358.789 348.186 356.108 355.159 358.758 361.11C361.407 367.062 368.384 369.736 374.343 367.083Z" fill="#FF7663"/>
<path d="M606.025 647.214L612.179 661.038L706.339 619.115L700.185 605.292C698.696 601.948 696.679 598.918 694.227 596.407C684.065 585.737 666.765 582.461 651.171 589.404L627.015 600.159C611.421 607.102 602.307 622.138 603.409 636.842C603.663 640.332 604.536 643.871 606.025 647.214Z" fill="#FFB93D"/>
<path d="M556.127 328.731C560.927 326.594 563.088 320.975 560.953 316.18C558.819 311.385 553.196 309.231 548.396 311.367C543.596 313.505 541.434 319.125 543.568 323.92C545.703 328.715 551.327 330.868 556.127 328.731Z" fill="#83C446"/>
<path d="M529.241 340.702C534.042 338.564 536.203 332.946 534.068 328.151C531.933 323.356 526.312 321.201 521.51 323.339C516.71 325.476 514.548 331.096 516.683 335.891C518.818 340.686 524.44 342.839 529.241 340.702Z" fill="#24A3DE"/>
<path d="M502.359 352.67C507.159 350.534 509.32 344.915 507.185 340.12C505.05 335.325 499.428 333.17 494.628 335.307C489.826 337.445 487.666 343.065 489.8 347.86C491.935 352.655 497.556 354.809 502.359 352.67Z" fill="#FF7663"/>
<path d="M436.59 279.348C439.814 277.912 441.263 274.14 439.831 270.922C438.397 267.702 434.625 266.256 431.401 267.692C428.178 269.127 426.726 272.898 428.16 276.118C429.592 279.336 433.368 280.783 436.59 279.348Z" fill="#FF7663"/>
<path d="M444.707 258.833C447.638 265.417 455.385 268.387 461.977 265.452C468.568 262.518 471.548 254.772 468.617 248.188C465.685 241.605 457.935 238.636 451.344 241.57C444.752 244.505 441.776 252.25 444.707 258.833ZM439.852 260.995C435.729 251.736 439.919 240.849 449.186 236.723C458.455 232.596 469.347 236.769 473.469 246.027C477.592 255.286 473.405 266.172 464.135 270.299C454.868 274.425 443.974 270.254 439.852 260.995Z" fill="#24A3DE"/>
<path d="M391.551 282.5C394.482 289.084 402.231 292.053 408.824 289.118C415.415 286.184 418.394 278.438 415.463 271.854C412.532 265.271 404.782 262.302 398.191 265.236C391.598 268.171 388.62 275.917 391.551 282.5ZM386.698 284.661C382.576 275.402 386.764 264.516 396.033 260.389C405.302 256.262 416.194 260.435 420.316 269.693C424.438 278.952 420.251 289.838 410.982 293.965C401.713 298.092 390.821 293.92 386.698 284.661Z" fill="#24A3DE"/>
<path d="M582.033 524.293C581.87 524.385 581.721 524.509 581.573 524.633L627.803 504.05C627.611 504.077 627.421 504.105 627.242 504.165C627.686 503.852 628.068 503.47 628.388 503.077L580.458 524.417C580.965 524.441 581.503 524.414 582.033 524.293Z" fill="#FFCF7A"/>
<path d="M473.165 572.765C473.003 572.857 472.854 572.98 472.705 573.105L518.911 552.533C518.722 552.558 518.529 552.587 518.353 552.646C518.794 552.334 519.178 551.952 519.496 551.559L471.592 572.887C472.098 572.913 472.636 572.885 473.165 572.765Z" fill="#FFCF7A"/>
<path d="M587.049 535.561C586.828 535.718 586.62 535.905 586.431 536.067L633.051 515.311C632.802 515.343 632.524 515.373 632.259 515.432C632.654 515.14 632.977 514.823 633.286 514.473L585.649 535.683C586.115 535.687 586.569 535.659 587.049 535.561Z" fill="#FFCF7A"/>
<path d="M478.181 584.032C477.959 584.189 477.753 584.376 477.564 584.538L524.158 563.793C523.911 563.825 523.632 563.855 523.367 563.914C523.763 563.622 524.086 563.305 524.397 562.954L476.781 584.154C477.248 584.158 477.703 584.13 478.181 584.032Z" fill="#FFCF7A"/>
<path d="M592.088 546.817C591.795 547.007 591.522 547.243 591.287 547.501L638.296 526.572C637.947 526.574 637.59 526.617 637.252 526.709C637.587 526.483 637.87 526.203 638.145 525.907L590.895 546.943C591.3 546.937 591.697 546.915 592.088 546.817Z" fill="#FFCF7A"/>
<path d="M483.223 595.288C482.928 595.478 482.654 595.715 482.42 595.972L529.404 575.054C529.055 575.056 528.697 575.1 528.36 575.192C528.695 574.966 528.977 574.686 529.252 574.389L482.027 595.415C482.432 595.409 482.829 595.387 483.223 595.288Z" fill="#FFCF7A"/>
<path d="M702.339 610.13L608.179 652.053L612.179 661.037L706.339 619.114L702.339 610.13Z" fill="#FF7663"/>
<path d="M497.285 695.629L503.439 709.452L597.597 667.53L591.443 653.707C589.954 650.363 587.937 647.333 585.485 644.822C575.325 634.151 558.025 630.875 542.429 637.819L518.274 648.573C502.678 655.517 493.566 670.552 494.669 685.256C494.922 688.746 495.796 692.285 497.285 695.629Z" fill="#FFB93D"/>
<path d="M471.755 470.643L472.692 472.749C475.333 478.68 479.064 483.721 483.59 487.791C496.381 499.411 515.358 503.057 532.196 495.56C549.006 488.076 558.993 471.534 558.918 454.253C558.921 448.167 557.672 442.021 555.031 436.089L554.094 433.983L471.755 470.643Z" fill="#FFCF7A"/>
<path d="M388.761 468.44L398.221 489.688C402.544 499.397 410.209 506.596 419.22 510.558C423.643 512.479 428.697 512.231 433.1 510.271L483.59 487.792C496.381 499.411 515.358 503.057 532.197 495.56C549.006 488.076 558.993 471.534 558.918 454.253L608.6 432.133C613.002 430.173 616.569 426.583 618.102 422.01C621.217 412.649 620.965 402.149 616.642 392.441L607.182 371.192L388.761 468.44Z" fill="#FFDFA6"/>
</g>
<defs>
<clipPath id="clip0_103_748">
<rect width="683" height="634" fill="white"/>
</clipPath>
</defs>
</svg>
