<svg width="65" height="65" viewBox="0 0 65 65" fill="none" xmlns="http://www.w3.org/2000/svg">
<path d="M31.8913 1.40081C32.2907 0.929264 33.0179 0.929265 33.4173 1.40081L37.9229 6.71985C38.2103 7.05904 38.687 7.16785 39.093 6.98692L45.4603 4.14951C46.0247 3.89798 46.6799 4.21351 46.8352 4.81166L48.5868 11.5589C48.6985 11.9891 49.0808 12.294 49.5251 12.3072L56.4929 12.5134C57.1106 12.5317 57.564 13.1003 57.4444 13.7065L56.095 20.5455C56.0089 20.9816 56.2211 21.4222 56.6157 21.6268L62.804 24.8359C63.3526 25.1203 63.5144 25.8294 63.1436 26.3237L58.9605 31.8999C58.6937 32.2555 58.6937 32.7445 58.9605 33.1001L63.1436 38.6763C63.5144 39.1706 63.3526 39.8797 62.804 40.1641L56.6157 43.3732C56.2211 43.5778 56.0089 44.0184 56.095 44.4545L57.4444 51.2935C57.564 51.8997 57.1106 52.4683 56.4929 52.4866L49.5251 52.6928C49.0808 52.706 48.6985 53.0109 48.5868 53.4411L46.8352 60.1883C46.6799 60.7865 46.0247 61.102 45.4603 60.8505L39.093 58.0131C38.687 57.8321 38.2103 57.941 37.9229 58.2801L33.4173 63.5992C33.0179 64.0707 32.2907 64.0707 31.8913 63.5992L27.3857 58.2801C27.0983 57.941 26.6216 57.8321 26.2156 58.0131L19.8483 60.8505C19.2839 61.102 18.6287 60.7865 18.4734 60.1883L16.7218 53.4411C16.6101 53.0109 16.2278 52.706 15.7835 52.6928L8.81568 52.4866C8.19798 52.4683 7.74456 51.8997 7.86418 51.2935L9.21359 44.4545C9.29964 44.0184 9.08748 43.5778 8.69286 43.3732L2.50458 40.1641C1.95599 39.8797 1.79416 39.1706 2.16499 38.6763L6.34809 33.1001C6.61485 32.7445 6.61485 32.2555 6.34809 31.8999L2.16499 26.3237C1.79416 25.8294 1.95599 25.1203 2.50458 24.8359L8.69286 21.6268C9.08748 21.4222 9.29964 20.9816 9.21359 20.5455L7.86418 13.7065C7.74455 13.1003 8.19798 12.5317 8.81568 12.5134L15.7835 12.3072C16.2278 12.294 16.6101 11.9891 16.7218 11.5589L18.4734 4.81166C18.6287 4.21351 19.2839 3.89798 19.8483 4.14951L26.2156 6.98692C26.6216 7.16785 27.0983 7.05904 27.3857 6.71985L31.8913 1.40081Z" fill="#FFB53D"/>
<path d="M22.7472 33C22.7665 38.3014 26.2666 43.3 31.7544 45.1383C37.2422 46.9766 43.0471 45.0952 46.256 40.8752" stroke="black" stroke-width="3"/>
<ellipse cx="32" cy="27" rx="2" ry="5" fill="black"/>
<ellipse cx="40" cy="27" rx="2" ry="5" fill="black"/>
</svg>
